<?xml version="1.0" encoding="UTF-8"?>
<svg id="Layer_1" data-name="Layer 1" xmlns="http://www.w3.org/2000/svg" viewBox="0 0 955 339.6">
  <defs>
    <style>
      .cls-1, .cls-2 {
        stroke-width: 0px;
      }

      .cls-2 {
        fill: #f69348;
      }
    </style>
  </defs>
  <path class="cls-1" d="m0,207.96V19.59h17.49v75.83c7.32-8.99,15.52-15.72,24.58-20.17,9.07-4.45,19.01-6.68,29.83-6.68,19.22,0,35.63,6.98,49.23,20.92,13.6,13.95,20.4,30.88,20.4,50.78s-6.87,36.44-20.59,50.34c-13.73,13.91-30.24,20.86-49.54,20.86-11.06,0-21.09-2.37-30.07-7.12-8.99-4.75-16.93-11.87-23.83-21.36v24.98H0Zm69.96-13.37c9.72,0,18.69-2.39,26.92-7.18,8.22-4.79,14.77-11.51,19.63-20.17,4.86-8.66,7.29-17.82,7.29-27.48s-2.45-18.86-7.35-27.61c-4.9-8.75-11.49-15.55-19.76-20.42-8.27-4.87-17.09-7.31-26.48-7.31s-18.63,2.44-27.23,7.31c-8.6,4.87-15.2,11.43-19.82,19.67s-6.92,17.53-6.92,27.86c0,15.74,5.17,28.9,15.52,39.48,10.35,10.58,23.08,15.86,38.2,15.86Z"/>
  <path class="cls-1" d="m287.81,162.87l14.74,7.74c-4.83,9.49-10.42,17.16-16.75,22.99-6.34,5.83-13.46,10.27-21.38,13.3-7.92,3.04-16.88,4.56-26.88,4.56-22.17,0-39.51-7.27-52.01-21.8-12.5-14.53-18.76-30.96-18.76-49.28,0-17.24,5.29-32.6,15.88-46.1,13.42-17.16,31.38-25.73,53.89-25.73s41.68,8.79,55.51,26.36c9.83,12.41,14.84,27.9,15,46.47h-122.29c.33,15.79,5.38,28.73,15.13,38.82,9.75,10.09,21.8,15.14,36.15,15.14,6.92,0,13.65-1.2,20.2-3.61,6.54-2.4,12.11-5.6,16.7-9.58,4.59-3.98,9.55-10.41,14.88-19.29Zm0-36.6c-2.33-9.33-5.73-16.78-10.19-22.36-4.46-5.58-10.36-10.08-17.7-13.49-7.34-3.41-15.05-5.12-23.14-5.12-13.34,0-24.81,4.29-34.4,12.87-7.01,6.25-12.3,15.62-15.88,28.11h101.31Z"/>
  <path class="cls-1" d="m354.89,21.59h17.49v50.47h27.73v15.11h-27.73v120.8h-17.49v-120.8h-23.86v-15.11h23.86V21.59Z"/>
  <path class="cls-1" d="m490.68,68.55c20.94,0,38.29,7.58,52.06,22.74,12.51,13.83,18.77,30.19,18.77,49.09s-6.61,35.58-19.83,49.78c-13.22,14.2-30.22,21.3-50.99,21.3s-37.9-7.1-51.12-21.3c-13.22-14.2-19.84-30.79-19.84-49.78s6.26-35.14,18.77-48.97c13.77-15.24,31.16-22.86,52.18-22.86Zm-.06,17.11c-14.54,0-27.04,5.37-37.48,16.12-10.45,10.74-15.67,23.73-15.67,38.97,0,9.83,2.38,18.99,7.15,27.48,4.76,8.49,11.2,15.05,19.31,19.67,8.11,4.62,17.01,6.93,26.7,6.93s18.59-2.31,26.7-6.93c8.11-4.62,14.54-11.18,19.31-19.67,4.76-8.49,7.15-17.66,7.15-27.48,0-15.24-5.24-28.23-15.73-38.97-10.49-10.74-22.96-16.12-37.42-16.12Z"/>
  <path class="cls-1" d="m594.11,72.05h17.49v24.98c6.9-9.49,14.85-16.61,23.83-21.36,8.99-4.75,19.01-7.12,30.07-7.12,19.3,0,35.82,6.96,49.54,20.86,13.73,13.91,20.59,30.65,20.59,50.22s-6.8,36.96-20.4,50.9c-13.6,13.95-30.01,20.92-49.23,20.92-10.82,0-20.76-2.25-29.83-6.75-9.07-4.5-17.26-11.2-24.58-20.11v73.08h-17.49V72.05Zm69.96,13.37c-15.12,0-27.85,5.28-38.2,15.85-10.35,10.57-15.52,23.71-15.52,39.43,0,10.32,2.31,19.59,6.92,27.83,4.61,8.23,11.22,14.76,19.82,19.59,8.6,4.82,17.67,7.24,27.23,7.24s18.22-2.43,26.49-7.3c8.27-4.87,14.85-11.67,19.75-20.4,4.9-8.73,7.35-17.88,7.35-27.45s-2.43-18.8-7.29-27.45c-4.86-8.65-11.4-15.37-19.63-20.15-8.23-4.78-17.2-7.18-26.92-7.18Z"/>
  <path class="cls-1" d="m765.76,72.06v135.92h17.49V52.8l-17.49,19.26Z"/>
  <path class="cls-1" d="m955,72.05v135.91h-17.24v-23.36c-7.33,8.91-15.55,15.62-24.67,20.11-9.12,4.5-19.09,6.75-29.92,6.75-19.24,0-35.67-6.98-49.28-20.92-13.62-13.95-20.43-30.92-20.43-50.9s6.87-36.31,20.61-50.22c13.74-13.91,30.27-20.86,49.6-20.86,11.16,0,21.25,2.37,30.29,7.12,9.04,4.75,16.97,11.87,23.8,21.36v-24.98h17.24Zm-69.89,13.37c-9.73,0-18.72,2.39-26.95,7.18-8.23,4.78-14.79,11.5-19.65,20.15-4.86,8.65-7.3,17.8-7.3,27.45s2.45,18.72,7.36,27.45c4.91,8.74,11.5,15.54,19.78,20.4,8.27,4.87,17.16,7.3,26.64,7.3s18.63-2.41,27.2-7.24,15.16-11.35,19.78-19.59c4.62-8.23,6.93-17.51,6.93-27.83,0-15.72-5.18-28.86-15.54-39.43-10.36-10.56-23.11-15.85-38.24-15.85Z"/>
  <polygon class="cls-2" points="783.25 50.29 783.25 0 808.39 25.14 783.25 50.29"/>
  <g>
    <path class="cls-1" d="m634.83,270.55h6.95v61.22h26.75v6.54h-33.69v-67.76Z"/>
    <path class="cls-1" d="m680.74,267.55c1.51,0,2.79.52,3.86,1.57,1.07,1.04,1.6,2.3,1.6,3.78s-.53,2.69-1.6,3.73c-1.07,1.04-2.35,1.57-3.86,1.57s-2.74-.52-3.81-1.57c-1.07-1.04-1.6-2.29-1.6-3.73s.53-2.73,1.6-3.78c1.07-1.04,2.34-1.57,3.81-1.57Zm-3.28,20.64h6.62v50.12h-6.62v-50.12Z"/>
    <path class="cls-1" d="m697.78,288.19h6.62v8.66c2.3-3.19,4.67-5.53,7.1-7,3.34-1.96,6.86-2.95,10.55-2.95,2.49,0,4.86.48,7.1,1.43,2.24.95,4.07,2.22,5.49,3.8,1.42,1.58,2.65,3.84,3.69,6.79,2.2-3.93,4.95-6.92,8.25-8.96,3.3-2.04,6.85-3.06,10.65-3.06,3.55,0,6.69.87,9.41,2.63,2.72,1.75,4.74,4.19,6.06,7.32,1.32,3.13,1.98,7.83,1.98,14.1v27.36h-6.76v-27.36c0-5.37-.39-9.07-1.18-11.08-.78-2.01-2.13-3.63-4.03-4.86-1.9-1.23-4.17-1.84-6.81-1.84-3.2,0-6.13.92-8.78,2.76-2.65,1.84-4.59,4.3-5.82,7.37-1.22,3.07-1.84,8.2-1.84,15.39v19.62h-6.62v-25.66c0-6.05-.39-10.16-1.16-12.32-.77-2.17-2.12-3.9-4.04-5.21-1.92-1.31-4.21-1.96-6.85-1.96-3.06,0-5.92.9-8.58,2.7s-4.63,4.21-5.91,7.25-1.91,7.69-1.91,13.96v21.24h-6.62v-50.12Z"/>
    <path class="cls-1" d="m790.9,267.55c1.51,0,2.79.52,3.86,1.57,1.07,1.04,1.6,2.3,1.6,3.78s-.53,2.69-1.6,3.73c-1.07,1.04-2.35,1.57-3.86,1.57s-2.74-.52-3.81-1.57c-1.07-1.04-1.6-2.29-1.6-3.73s.53-2.73,1.6-3.78c1.07-1.04,2.34-1.57,3.81-1.57Zm-3.28,20.64h6.62v50.12h-6.62v-50.12Z"/>
    <path class="cls-1" d="m813.75,269.58h6.62v18.61h10.49v5.57h-10.49v44.55h-6.62v-44.55h-9.03v-5.57h9.03v-18.61Z"/>
    <path class="cls-1" d="m884.07,321.68l5.58,2.86c-1.83,3.5-3.94,6.33-6.34,8.48-2.4,2.15-5.09,3.79-8.09,4.91-3,1.12-6.39,1.68-10.17,1.68-8.39,0-14.95-2.68-19.68-8.04-4.73-5.36-7.09-11.42-7.09-18.17,0-6.36,2-12.02,6.01-17,5.08-6.33,11.87-9.49,20.39-9.49s15.77,3.24,21,9.72c3.72,4.58,5.61,10.29,5.68,17.14h-46.27c.13,5.82,2.03,10.59,5.73,14.32,3.69,3.72,8.25,5.58,13.67,5.58,2.62,0,5.16-.44,7.64-1.33,2.48-.89,4.58-2.06,6.32-3.53,1.74-1.47,3.61-3.84,5.63-7.11Zm0-13.5c-.88-3.44-2.17-6.19-3.86-8.25-1.69-2.06-3.92-3.71-6.69-4.97-2.78-1.26-5.69-1.89-8.75-1.89-5.05,0-9.38,1.58-13.01,4.75-2.65,2.3-4.65,5.76-6.01,10.37h38.33Z"/>
    <path class="cls-1" d="m955,268.84v69.47h-6.52v-8.61c-2.77,3.29-5.88,5.76-9.33,7.42-3.45,1.66-7.22,2.49-11.32,2.49-7.28,0-13.49-2.57-18.64-7.72-5.15-5.14-7.73-11.4-7.73-18.77s2.6-13.39,7.8-18.52c5.2-5.13,11.45-7.69,18.76-7.69,4.22,0,8.04.87,11.46,2.63,3.42,1.75,6.42,4.38,9,7.88v-28.56h6.52Zm-26.44,24.28c-3.68,0-7.08.88-10.2,2.65-3.12,1.76-5.59,4.24-7.44,7.43-1.84,3.19-2.76,6.57-2.76,10.12s.93,6.9,2.79,10.12c1.86,3.22,4.35,5.73,7.48,7.52,3.13,1.8,6.49,2.69,10.08,2.69s7.05-.89,10.29-2.67c3.24-1.78,5.74-4.19,7.48-7.23,1.74-3.04,2.62-6.46,2.62-10.26,0-5.8-1.96-10.64-5.88-14.54-3.92-3.9-8.74-5.84-14.47-5.84Z"/>
  </g>
</svg>